PathFileType	4	(X/Y/Z)	/Users/itak/Documents/Research/Walk-IL/dataset/trc/00567_00009.trc
DataRate	CameraRate	NumFrames	NumMarkers	Units	OrigDataRate	OrigDataStartFrame	OrigNumFrames
100.000000	100.000000	4	53	mm	100.000000	279	447
Frame#	Time	RPSI			LPSI			L3			STRN			T10			C7			CLAV			RBAK			LBAK			LSHO			LUPA			LAEL			LAOL			LWTS			LWPS			LFRA			LHPS			LHTS			RSHO			RUPA			RAEL			RAOL			RWTS			RWPS			RFRA			RIFD			RHTS			RHPS			RBHD			LFHD			RFHD			LBHD			LHIP			RHIP			RASI			LASI			LKNE			LTHI			LANK			LTIP			LTOE			LMT1			LMT5			LHEE			RKNE			RTHI			RANK			RTIP			RTOE			RMT1			RMT5			RHEE			LIFD			
		X1	Y1	Z1	X2	Y2	Z2	X3	Y3	Z3	X4	Y4	Z4	X5	Y5	Z5	X6	Y6	Z6	X7	Y7	Z7	X8	Y8	Z8	X9	Y9	Z9	X10	Y10	Z10	X11	Y11	Z11	X12	Y12	Z12	X13	Y13	Z13	X14	Y14	Z14	X15	Y15	Z15	X16	Y16	Z16	X17	Y17	Z17	X18	Y18	Z18	X19	Y19	Z19	X20	Y20	Z20	X21	Y21	Z21	X22	Y22	Z22	X23	Y23	Z23	X24	Y24	Z24	X25	Y25	Z25	X26	Y26	Z26	X27	Y27	Z27	X28	Y28	Z28	X29	Y29	Z29	X30	Y30	Z30	X31	Y31	Z31	X32	Y32	Z32	X33	Y33	Z33	X34	Y34	Z34	X35	Y35	Z35	X36	Y36	Z36	X37	Y37	Z37	X38	Y38	Z38	X39	Y39	Z39	X40	Y40	Z40	X41	Y41	Z41	X42	Y42	Z42	X43	Y43	Z43	X44	Y44	Z44	X45	Y45	Z45	X46	Y46	Z46	X47	Y47	Z47	X48	Y48	Z48	X49	Y49	Z49	X50	Y50	Z50	X51	Y51	Z51	X52	Y52	Z52	X53	Y53	Z53	

280	2.79	194.0578002929688	981.05810546875	725.1844482421875	327.185302734375	977.111572265625	718.7124633789062	261.3850708007812	1080.059326171875	719.3217163085938	286.8193054199219	1273.1953125	949.041748046875	258.8350830078125	1206.323974609375	709.7159423828125	242.00830078125	1481.665893554688	759.3715209960938	282.0185852050781	1382.24951171875	928.7837524414062	149.7952117919922	1352.461181640625	702.659423828125	327.1615905761719	1430.29736328125	710.520263671875	425.6332092285156	1454.590698242188	792.5094604492188	501.69140625	1328.679443359375	765.960693359375	540.96875	1111.465576171875	772.9863891601562	465.926513671875	1098.281982421875	706.831298828125	538.3948974609375	873.0853881835938	882.2947387695312	591.9191284179688	849.821533203125	817.0181274414062	559.3663940429688	1026.872924804688	794.1820678710938	588.6754760742188	789.8056640625	828.1090698242188	565.010498046875	795.752197265625	892.8406982421875	98.28383636474609	1440.062622070312	839.6492309570312	28.72956657409668	1373.710571289062	834.1754760742188	-9.017770767211914	1083.739501953125	856.1685791015625	11.99011421203613	1061.440795898438	800.3514404296875	51.49696350097656	884.6205444335938	1011.623168945312	-17.83719635009766	856.041015625	976.3619384765625	-14.65925979614258	1029.600219726562	872.94970703125	57.72549819946289	714.861572265625	1044.983154296875	42.58869171142578	798.1812744140625	1053.600830078125	-10.20158576965332	785.0906982421875	1003.228576660156	186.2785949707031	1662.876586914062	863.651611328125	343.1955871582031	1673.871826171875	1000.318786621094	199.4105529785156	1667.695678710938	1003.480346679688	352.5856628417969	1667.686279296875	866.7803344726562	463.0554809570312	914.4028930664062	849.7449340820312	77.28769683837891	918.5848999023438	855.7210693359375	137.3578186035156	954.89404296875	941.2427978515625	412.9385986328125	949.2609252929688	926.0594482421875	427.8801879882812	517.9077758789062	1058.338012695312	463.9853210449219	664.5322875976562	979.3798828125	435.0286254882812	38.10588073730469	1150.74658203125	440.8271484375	266.9150085449219	1084.39794921875	378.7978820800781	118.5148391723633	1340.20947265625	343.9230346679688	99.51866912841797	1272.710693359375	445.7217407226562	70.70557403564453	1265.907592773438	383.2625427246094	28.39220237731934	1081.129028320312	171.2939758300781	480.130126953125	839.9639892578125	100.24365234375	762.908447265625	887.8302001953125	212.7947845458984	48.22132110595703	651.779296875	199.1973114013672	338.713134765625	806.5880737304688	306.9159240722656	42.02501678466797	855.0663452148438	329.877197265625	40.58281707763672	780.5180053710938	225.8461151123047	43.50832366943359	785.1371459960938	251.7456665039062	43.14493942260742	584.8141479492188	541.9033813476562	702.05908203125	877.3638916015625	
281	2.8	196.6484069824219	980.5167846679688	732.693359375	329.8211975097656	976.3474731445312	726.9598388671875	263.9801940917969	1078.988037109375	727.0535278320312	288.19970703125	1272.510498046875	956.5302124023438	261.4496154785156	1205.32958984375	717.15283203125	244.1553497314453	1480.748413085938	766.3477172851562	283.4502868652344	1381.54736328125	936.0713500976562	152.3789978027344	1351.39013671875	709.3270263671875	329.5282592773438	1429.273193359375	717.869140625	427.6915893554688	1453.706787109375	800.1787719726562	503.7941589355469	1327.75537109375	774.0528564453125	543.0223999023438	1110.551391601562	781.5682373046875	468.1722717285156	1097.208740234375	715.2510375976562	539.9970703125	872.6935424804688	891.8275756835938	593.64892578125	849.0662231445312	826.8118896484375	561.3196411132812	1026.019165039062	803.144775390625	590.3907470703125	789.1016845703125	838.1871948242188	566.6285400390625	795.4077758789062	902.7919311523438	100.0945587158203	1439.076782226562	845.9712524414062	30.63056945800781	1372.611206054688	840.1647338867188	-6.876951694488525	1082.535400390625	861.3936767578125	14.56626033782959	1060.533813476562	805.6116943359375	52.07865905761719	881.97412109375	1015.652038574219	-17.08473014831543	853.89892578125	979.6956787109375	-12.93660640716553	1028.249877929688	877.7362060546875	57.74704742431641	711.8927612304688	1047.471923828125	42.79581832885742	795.1644287109375	1056.739990234375	-9.722576141357422	782.6771240234375	1005.925964355469	187.9284210205078	1662.123046875	870.248046875	344.2412719726562	1673.246337890625	1007.569519042969	200.4583129882812	1666.99267578125	1010.16162109375	354.1635131835938	1667.025268554688	874.0531005859375	464.6242980957031	913.4445190429688	858.9351196289062	78.83313751220703	918.087158203125	862.1481323242188	138.4159088134766	954.1282958984375	948.3766479492188	414.1173095703125	948.395751953125	934.9348754882812	426.692626953125	516.7938232421875	1066.685302734375	463.8425598144531	663.2553100585938	988.3385620117188	432.2582702636719	37.25909423828125	1157.914916992188	438.68115234375	265.6602172851562	1092.654907226562	374.0227355957031	116.5235214233398	1347.271606445312	339.7513122558594	97.64917755126953	1279.31103515625	441.5793151855469	69.15081787109375	1273.279418945312	380.9468994140625	28.10138511657715	1087.708374023438	171.8168029785156	479.6942138671875	844.2424926757812	101.1808700561523	762.2622680664062	893.6680908203125	213.1753387451172	48.95028305053711	651.9794921875	199.589599609375	338.4076538085938	809.6141967773438	306.9053344726562	41.93708419799805	855.1741333007812	329.7605895996094	40.75474548339844	780.7088012695312	225.8566284179688	43.48567962646484	785.232666015625	251.9851684570312	44.68075942993164	585.0011596679688	543.5258178710938	701.6835327148438	887.7796020507812	
282	2.81	199.2519836425781	980.02734375	740.30126953125	332.4866333007812	975.7032470703125	735.2797241210938	266.590576171875	1077.965454101562	734.9069213867188	289.5665588378906	1271.905029296875	964.110595703125	264.0908203125	1204.39013671875	724.7055053710938	246.3339080810547	1479.895385742188	773.3792114257812	284.8779907226562	1380.929809570312	943.4318237304688	154.9993438720703	1350.3701171875	716.06787109375	331.9246215820312	1428.298583984375	725.2942504882812	429.7734985351562	1452.874755859375	807.9298706054688	505.9117126464844	1326.865600585938	782.2493896484375	545.0518188476562	1109.66552734375	790.268310546875	470.3974914550781	1096.178100585938	723.7708129882812	541.53076171875	872.3362426757812	901.4661865234375	595.3098754882812	848.3305053710938	836.6780395507812	563.2274780273438	1025.184204101562	812.2141723632812	592.0266723632812	788.4170532226562	848.3441772460938	568.1785278320312	795.0777587890625	912.807373046875	101.919563293457	1438.173950195312	852.3348388671875	32.54670333862305	1371.588134765625	846.2011108398438	-4.696122646331787	1081.405639648438	866.6508178710938	17.21350860595703	1059.717895507812	810.9034423828125	52.58500671386719	879.295654296875	1019.567993164062	-16.38920402526855	851.7747802734375	982.8677368164062	-11.17977619171143	1026.969604492188	882.5119018554688	57.64524459838867	708.8701171875	1049.685180664062	42.90486145019531	792.0819702148438	1059.67724609375	-9.351879119873047	780.2713623046875	1008.412231445312	189.6134643554688	1661.457153320312	876.85546875	345.3204345703125	1672.725341796875	1014.820678710938	201.5365447998047	1666.41455078125	1016.850036621094	355.7755737304688	1666.436767578125	881.3350219726562	466.1673889160156	912.6006469726562	868.218017578125	80.43743896484375	917.6240844726562	868.640869140625	139.4716949462891	953.3985595703125	955.5787353515625	415.2926025390625	947.6204223632812	943.8984985351562	425.5340881347656	515.744384765625	1074.975952148438	463.5876770019531	662.1468505859375	997.4042358398438	429.7863464355469	36.37928009033203	1163.806274414062	436.6311340332031	264.3610534667969	1100.357666015625	369.2991027832031	113.4329528808594	1353.393798828125	335.7004089355469	94.96405792236328	1284.854125976562	437.6034240722656	66.99246215820312	1279.511962890625	378.9080200195312	28.05174255371094	1092.985229492188	172.3532409667969	479.296142578125	848.7117919921875	102.1455154418945	761.64697265625	899.6112670898438	213.4993896484375	49.78538513183594	652.2236328125	199.9807434082031	338.1482849121094	812.7969360351562	306.9069213867188	41.85083770751953	855.2886352539062	329.6309814453125	40.95565414428711	780.9055786132812	225.8583831787109	43.47097778320312	785.3486328125	252.1848602294922	46.39670181274414	585.2238159179688	545.061279296875	701.3124389648438	898.2603149414062	
283	2.82	201.8536682128906	979.5955810546875	748.0072631835938	335.1598510742188	975.1937866210938	743.6672973632812	269.1993103027344	1077.014038085938	742.8880615234375	290.9134826660156	1271.395385742188	971.7815551757812	266.7510375976562	1203.520751953125	732.3734130859375	248.5456237792969	1479.123657226562	780.4656982421875	286.29931640625	1380.4111328125	950.8637084960938	157.6519012451172	1349.419799804688	722.8828125	334.3523559570312	1427.39306640625	732.800048828125	431.8761901855469	1452.113403320312	815.7723999023438	508.0453491210938	1326.026489257812	790.5637817382812	547.0563354492188	1108.824462890625	799.10107421875	472.6114501953125	1095.2099609375	732.390625	542.9906616210938	872.0149536132812	911.197265625	596.902099609375	847.625732421875	846.6079711914062	565.0889892578125	1024.383178710938	821.3951416015625	593.5819091796875	787.7632446289062	858.5669555664062	569.655029296875	794.7675170898438	922.8772583007812	103.7551803588867	1437.372436523438	858.7413940429688	34.47387313842773	1370.6591796875	852.2852783203125	-2.483241081237793	1080.368774414062	871.9402465820312	19.93109321594238	1059.009643554688	816.2291870117188	53.01422882080078	876.6143798828125	1023.377075195312	-15.75257682800293	849.6986083984375	985.8816528320312	-9.375027656555176	1025.784423828125	887.2799072265625	57.42046737670898	705.83203125	1051.636474609375	42.90805816650391	788.971435546875	1062.422607421875	-9.085400581359863	777.90673828125	1010.694519042969	191.3275756835938	1660.893432617188	883.4794311523438	346.4301147460938	1672.325805664062	1022.075805664062	202.6418914794922	1665.97705078125	1023.547302246094	357.421630859375	1665.9365234375	888.629638671875	467.6902465820312	911.900146484375	877.5753173828125	82.10595703125	917.2001342773438	875.2271728515625	140.5322418212891	952.7098388671875	962.85205078125	416.4713134765625	946.9620361328125	952.93212890625	424.416748046875	514.8086547851562	1083.234375	463.2319946289062	661.2322387695312	1006.559753417969	427.6728210449219	35.53011703491211	1168.532958984375	434.7369079589844	263.0802917480469	1107.588623046875	364.7078552246094	109.2931289672852	1358.687866210938	331.8515930175781	91.53379821777344	1289.4541015625	433.8888549804688	64.31224822998047	1284.718872070312	377.2036437988281	28.27691841125488	1097.094848632812	172.913330078125	478.9377746582031	853.39404296875	103.1563720703125	761.0670776367188	905.6837158203125	213.7568969726562	50.74944305419922	652.517333984375	200.3721313476562	337.9385681152344	816.1527099609375	306.9209594726562	41.76836776733398	855.414306640625	329.4917907714844	41.19219589233398	781.113525390625	225.8455505371094	43.47005844116211	785.4899291992188	252.3468322753906	48.3077392578125	585.48779296875	546.5026245117188	700.953857421875	908.7838745117188	
